<?xml version="1.0" standalone="no"?><!DOCTYPE svg PUBLIC "-//W3C//DTD SVG 1.1//EN" "http://www.w3.org/Graphics/SVG/1.1/DTD/svg11.dtd"><svg t="1724146361554" class="icon" viewBox="0 0 1024 1024" version="1.1" xmlns="http://www.w3.org/2000/svg" p-id="13375" xmlns:xlink="http://www.w3.org/1999/xlink" width="32" height="32"><path d="M559.59899346 338.01646308h-36.17574786v-27.13501757c0.14966367-58.76634727 47.85910312-106.31757129 106.63079502-106.26732686v36.17574697a70.35669756 70.35669756 0 0 0-49.78120605 20.5455586 70.35562881 70.35562881 0 0 0-20.67384111 49.72989287v26.951146z m-57.6107332 108.89070997h-36.17574698V175.0406583a64.66521797 64.66521797 0 0 0-18.94202403-45.72533233 64.66521797 64.66521797 0 0 0-45.72533232-18.94202314V74.19755586c55.67259375 0.05024443 100.79285888 45.17050957 100.84310333 100.84310244v271.86651475z m0 0" fill="#595757" p-id="13376"></path><path d="M512.84098496 515.19103438c-25.95267773-0.05024443-46.98250401-21.07579394-47.02847168-47.02954043v-76.60620791h36.17574698v76.6062079c0 5.99294443 4.86084903 10.84951758 10.85272471 10.84951671 5.99294443 0 10.84951758-4.85657315 10.85379257-10.84951671V333.49449482h36.1746791v134.66699913c-0.04917481 25.95374737-21.07472432 46.97929687-47.02847167 47.02954043zM338.19786055 263.30990997h-36.17574786v-88.26925167c0.10048799-55.68969815 45.24534052-100.79285888 100.9307628-100.84310244v36.17574697c-35.72889609 0-64.70477138 28.93846026-64.75501494 64.66735547v88.26925167z m396.40344872 140.27616386h-36.17574697v-92.52075674c-0.05024443-38.79378545-31.48166602-70.22520791-70.27224433-70.27545147v-36.17574697c58.76741602 0.05024443 106.39774776 47.68057617 106.44799131 106.45119844v92.52075674z m1e-8 0" fill="#595757" p-id="13377"></path><path d="M315.94934815 868.09378906C236.00565019 868.03499287 169.31356455 806.99162627 162.19707646 727.36649667h307.50347373c-7.15817988 79.60481807-73.82567812 140.6268044-153.75120204 140.72729239z m0 0" fill="#E80019" p-id="13378"></path><path d="M860.04370742 949.48922041h-285.16195723a39.07386914 39.07386914 0 0 1-34.36696055-18.09001143 45.23037451 45.23037451 0 0 1 0-44.5857539l108.53044981-220.22627607V537.25567432h-9.67893662V425.02106006h156.28585694V537.25567432h-9.95153819v129.87349892L894.23214013 887.26458359a45.23892627 45.23892627 0 0 1 0 44.59002891 39.16366787 39.16366787 0 0 1-34.18843271 17.63460791zM675.54525693 501.07992734h10.12685801v174.46459747L573.34556357 903.27534453a14.38691484 14.38691484 0 0 0-2.17118672 9.04073028c1.19837549 0.38377969 2.45127041 0.56765127 3.70737335 0.54306386h285.16195722a6.91871836 6.91871836 0 0 0 3.80037745-0.72266045 14.75893565 14.75893565 0 0 0-2.17118672-9.04500527L749.52594336 675.5445248v-174.46459746h9.94619268v-39.88312031H675.54525693v39.88312031z m0 0" fill="#595757" p-id="13379"></path><path d="M626.61713135 877.13451846l90.89156513-184.40651338 90.89263477 184.40651338H626.61713135z m0 0" fill="#E80019" p-id="13380"></path><path d="M315.94934815 949.48922041c-117.20450391 0.05879619-216.64932451-86.01468135-233.39022979-202.01974101-16.74518027-116.0061293 54.29462256-226.68745342 166.73449042-259.77265401v-78.86612286H235.09591104V295.59762002h161.70580459v113.23308251h-14.10576152v79.3172505c112.45590263 33.09375323 183.4967751 143.79966474 166.73021367 259.81862255-16.77083731 116.01788818-116.2520042 202.07853721-233.47681963 201.97377335v-0.45112852z m-44.67769015-576.83426572H285.46935664v143.43726621l-14.1057624 3.16537822C172.42442158 541.9454794 106.28715957 635.30114346 117.69898291 736.16562705c11.41716885 100.85913808 96.74232979 177.07301455 198.25036524 177.07301456 101.5069667 0 186.83212763-76.21387559 198.2492956-177.07301456 11.41289209-100.86448359-54.72116279-194.22014766-153.66033545-216.90802793l-14.01810205-3.16537822V372.65495469h14.10683115v-40.8815877H271.271658v40.8815877zM155.77866055 247.57602559c-23.20101211 0.03314004-44.13890214-13.91440693-53.04172764-35.33656465-8.90282549-21.42215771-4.01738906-46.10162812 12.37287568-62.5175499 16.39026474-16.41912803 41.06225302-21.34198037 62.50044552-12.4733628 21.43498536 8.86968633 35.41567148 29.78726396 35.41567148 52.9840002-0.05024443 31.61101816-25.63517812 57.24298916-57.24726504 57.34347714z m0-78.41499522a21.16666055 21.16666055 0 1 0-15.05719248 36.1297793 21.16452305 21.16452305 0 0 0 23.1048 4.56793681 21.16131592 21.16131592 0 0 0 13.02390966-19.62619804c-0.04917481-11.61707607-9.45337237-21.02127364-21.07151718-21.07151807z m678.30809238-55.53041396h36.17574785v34.45889677h-36.17574785V113.63061641z m-75.14485225 62.40423339l18.08573555-31.32772646 29.8449914 17.23799971-18.08573554 31.31917471-29.84499141-17.22944795z m-1.49449482 65.02654776l29.84499141-17.20913642 18.08145966 31.33627909-29.85781992 17.22089532-18.06863115-31.34803799z m73.56590508 30.65958721h36.17574784v34.4588959h-36.17574784V271.72098477z m63.3813205-13.98923878l18.08573555-31.33200234 29.84926817 17.23799971-18.09001143 31.33200322-29.84499229-17.23800059z m1.53725538-93.10123563l29.84499228-17.22944883 18.09001143 31.32665859-29.84499141 17.22944795-18.0900123-31.32665771z m0 0" fill="#595757" p-id="13381"></path></svg>